<svg id="Layer_1" data-name="Layer 1" xmlns="http://www.w3.org/2000/svg" viewBox="0 0 466.05 312.83"><defs><style>.cls-1{fill:none;stroke:#f3da9d;stroke-miterlimit:10;stroke-width:0.5px;}.cls-2{fill:#e9b225;}.cls-3{fill:#ffdf56;}.cls-4{fill:#fff;}</style></defs><path class="cls-1" d="M230.3,201.38c-.53-.74-5.9-64.85,0-90.83"/><path class="cls-2" d="M230.12,110.4c0-1.63.06-3.26.08-4.89,0-.9.19-2.13.4-2.14s.47,1.38.66,2.72l0,1.19.32-.63.05-.87c.07-.44.13-.88.19-1.32s.21-.41.27-.42c.28,0,.59.83.63,1l.21-.33.1-1.58,0-3.44.25.1.27,1,.26.92.17,0,.12-1.23.33-.11h.43l-.17-4.71H235l.17.44.11,1.55.14.38.35.08.12-1.08.07-3,.28-.71h.37l.08.58,0,2,.11.6v.27l.17.08.14.41V98l-.38.51-.41.25,0,.82.37.18-.19.46-.7.75-.31.75-.17.5-.35.28-.55.53v.69l.06.55-.36.68-.41.81-.46.56-.62.28-.33.27-.29.4,0,1-.06.36-.17.22.25.08.8-.29.92-.22.34.19-.22.43-1.07.34-1.21.08-.68.28-.51.55Z"/><polygon class="cls-3" points="230.12 110.4 230.12 110.72 230.49 110.82 231.61 110.66 232.43 110.4 232.99 109.94 233.62 109.54 233.89 109.05 234.2 108.61 233.77 108.43 233.53 108.3 233.62 108.01 234.38 107.65 234.82 107.15 235.57 106.69 236.44 106.17 237.11 105.83 237.67 105.56 238.15 105.06 238.01 104.86 237.51 104.92 236.96 105.26 236.4 105.56 235.82 105.94 235.34 105.92 235.18 105.68 235.82 105.26 236.55 104.86 237.11 104.42 237.66 103.98 238.39 103.38 238.85 103.13 238.94 102.91 238.77 102.8 238.43 102.89 237.99 103.2 237.38 103.52 236.89 103.7 236.82 103.37 237.22 103 237.62 102.55 237.92 102.21 238.08 101.97 239.16 100.88 239.64 100.38 239.55 100 239.18 100.1 238.68 100.63 237.94 101.26 237.64 101.44 237.43 101.27 237.9 100.87 238.36 100.45 238.71 99.93 238.94 99.35 238.87 99.04 238.48 98.93 238.19 98.79 238.38 98.44 238.89 98.11 239.44 97.39 240.15 96.38 240.88 95.32 241.13 94.87 241.13 94.4 240.85 94.45 240.43 94.85 239.93 95.55 239.35 96.26 238.75 96.9 238.29 97.09 237.88 97.19 237.84 96.84 238.07 96.27 238.39 95.49 238.71 94.4 238.74 93.53 238.71 92.86 238.57 92.65 238.26 92.76 237.97 93.21 237.78 93.9 237.52 94.82 237.39 95.56 237.23 96.23 237.11 96.6 237.1 97.14 237.11 98.03 236.73 98.54 236.32 98.79 236.36 99.61 236.73 99.79 236.54 100.25 235.84 101 235.36 102.25 234.46 103.06 234.52 104.31 234.16 104.98 233.75 105.79 233.29 106.35 232.67 106.63 232.34 106.9 232.06 107.3 232.03 108.28 231.97 108.64 231.8 108.86 232.05 108.94 232.85 108.65 233.68 108.45 234.11 108.62 233.81 109.08 232.82 109.39 231.61 109.47 230.93 109.75 230.42 110.3 230.12 110.4"/><path class="cls-1" d="M227.41,116a21.52,21.52,0,0,1,1,7.43"/><path class="cls-2" d="M227.2,116.16l-3.89-2.81c-.72-.52-1.62-1.35-1.51-1.54s1.38.37,2.56,1l.94.71-.33-.62-.68-.53-.95-.9c-.24-.29-.22-.41-.19-.46.12-.26,1,0,1.13,0l-.15-.36-1.23-1-2.78-1.9.22-.16.95.33.88.29.07-.17-.92-.78.09-.35.24-.37-3.89-2.5.2-.3.44.11,1.31.78.39.08.26-.25-.81-.71L217.17,102l-.42-.64L217,101l.52.26,1.61,1.1.56.24.21.14.16-.1.41.11.72.49.2.61,0,.49.68.42.35-.21.27.42.21,1,.43.69.3.42,0,.45.11.77.56.38.48.27.34.69.42.8.2.7-.12.69,0,.43.16.47.78.57.26.25.07.27.21-.17.21-.84.34-.91.35-.19.22.44-.33,1.09-.61,1.08-.16.74.16.74Z"/><polygon class="cls-3" points="227.2 116.16 227.45 116.34 227.74 116.08 228.24 115.03 228.49 114.19 228.43 113.46 228.46 112.7 228.22 112.2 228.04 111.68 227.65 111.95 227.41 112.08 227.23 111.84 227.37 110.99 227.21 110.34 227.26 109.44 227.33 108.41 227.43 107.65 227.52 107.02 227.38 106.33 227.16 106.33 226.92 106.8 226.88 107.45 226.81 108.09 226.8 108.8 226.51 109.21 226.23 109.21 226.25 108.42 226.34 107.58 226.29 106.86 226.24 106.14 226.17 105.18 226.23 104.65 226.1 104.45 225.92 104.53 225.8 104.88 225.8 105.42 225.71 106.12 225.59 106.64 225.29 106.51 225.21 105.97 225.07 105.37 224.96 104.92 224.86 104.66 224.59 103.13 224.45 102.43 224.1 102.3 223.97 102.67 224.12 103.39 224.21 104.38 224.19 104.73 223.94 104.82 223.88 104.19 223.8 103.57 223.57 102.98 223.23 102.45 222.94 102.35 222.64 102.61 222.36 102.78 222.19 102.43 222.21 101.8 221.94 100.94 221.52 99.77 221.07 98.55 220.85 98.08 220.47 97.82 220.35 98.08 220.44 98.67 220.73 99.48 220.97 100.37 221.16 101.25 221.06 101.74 220.9 102.15 220.6 101.99 220.26 101.47 219.81 100.76 219.12 99.88 218.44 99.37 217.88 99.02 217.63 99.01 217.55 99.35 217.74 99.85 218.19 100.39 218.79 101.13 219.31 101.66 219.76 102.17 220 102.48 220.43 102.79 221.15 103.28 221.35 103.89 221.32 104.38 222 104.8 222.35 104.59 222.62 105.01 222.83 106.02 223.56 107.13 223.71 108.35 224.75 109 225.09 109.69 225.51 110.49 225.71 111.19 225.59 111.88 225.62 112.31 225.78 112.78 226.56 113.35 226.81 113.6 226.89 113.87 227.1 113.69 227.31 112.86 227.62 112.04 228 111.76 228.2 112.27 227.89 113.29 227.28 114.37 227.12 115.11 227.28 115.85 227.2 116.16"/><path class="cls-1" d="M230,126.21s-2.6,4-2.18,8.22"/><path class="cls-2" d="M229.78,126.16l.78-4.82c.15-.89.5-2.08.71-2.06s.26,1.44.26,2.79l-.22,1.17.4-.57.18-.85.38-1.28c.15-.34.26-.37.32-.37.28,0,.46.91.49,1l.25-.29.32-1.56.47-3.4.24.14.11,1,.13.94h.18l.29-1.2.35-.07.42.07.51-4.69.35,0,.1.46-.12,1.56.09.39.34.13.27-1.05.5-3,.38-.65.36,0v.59l-.27,2,0,.61,0,.26.15.11.09.43-.12.87-.45.45-.44.19-.08.81.34.23-.25.43-.8.63-.42.7-.24.47-.38.22-.63.44-.09.68,0,.56-.45.62-.52.73-.53.49-.66.19-.36.21-.34.35-.17,1-.11.35-.2.18.24.12.83-.16.94-.08.31.24-.28.39-1.1.17-1.21-.1-.72.17-.58.47Z"/><polygon class="cls-3" points="229.78 126.17 229.73 126.48 230.09 126.63 231.22 126.64 232.06 126.52 232.68 126.14 233.36 125.84 233.7 125.4 234.07 125.01 233.67 124.77 233.45 124.61 233.58 124.33 234.39 124.1 234.9 123.67 235.7 123.33 236.64 122.94 237.35 122.71 237.94 122.52 238.48 122.1 238.38 121.89 237.87 121.87 237.28 122.12 236.69 122.33 236.06 122.62 235.58 122.53 235.46 122.27 236.16 121.94 236.94 121.67 237.55 121.31 238.16 120.96 238.96 120.48 239.45 120.3 239.58 120.09 239.43 119.97 239.07 120 238.59 120.24 237.94 120.46 237.44 120.56 237.42 120.23 237.86 119.93 238.32 119.54 238.67 119.25 238.86 119.03 240.08 118.12 240.64 117.7 240.6 117.31 240.22 117.35 239.65 117.8 238.82 118.31 238.5 118.44 238.32 118.25 238.84 117.92 239.36 117.58 239.77 117.12 240.09 116.57 240.06 116.26 239.7 116.09 239.43 115.91 239.66 115.59 240.22 115.34 240.86 114.72 241.71 113.82 242.58 112.89 242.9 112.48 242.97 112.01 242.68 112.02 242.21 112.35 241.62 112.97 240.94 113.58 240.26 114.13 239.78 114.25 239.35 114.28 239.37 113.93 239.67 113.39 240.1 112.67 240.57 111.64 240.73 110.79 240.79 110.12 240.69 109.89 240.36 109.96 240.01 110.35 239.72 111.01 239.33 111.88 239.1 112.59 238.84 113.23 238.68 113.58 238.59 114.12 238.47 114.99 238.02 115.44 237.58 115.63 237.5 116.44 237.84 116.67 237.59 117.1 236.79 117.73 236.13 118.9 235.12 119.56 235 120.8 234.55 121.42 234.03 122.15 233.5 122.64 232.84 122.83 232.47 123.04 232.14 123.39 231.97 124.36 231.86 124.71 231.66 124.89 231.9 125.01 232.73 124.85 233.58 124.78 233.98 125.01 233.62 125.41 232.6 125.57 231.39 125.47 230.67 125.64 230.09 126.11 229.78 126.17"/><rect class="cls-4" x="217.55" y="150.05" width="21.08" height="54.99"/></svg>