<svg id="Layer_1" data-name="Layer 1" xmlns="http://www.w3.org/2000/svg" viewBox="0 0 466.05 312.83"><defs><style>.cls-1{fill:#ffda84;}.cls-2{fill:#ffd24d;}.cls-3{fill:#ffdf5e;}.cls-4{fill:#f4c840;}.cls-10,.cls-12,.cls-5{fill:#722620;}.cls-6{fill:#fce87c;}.cls-7{fill:#cb6454;}.cls-8{fill:#a6d689;}.cls-9{fill:#376e1b;}.cls-10,.cls-12{stroke:#722620;stroke-miterlimit:10;stroke-width:0.25px;}.cls-10{opacity:0.41;}.cls-11{opacity:0.24;}</style></defs><path class="cls-1" d="M240.63,145.07s27.28-8.26,32-8.15a4,4,0,0,1,2.65.42s1.14.65-1.33,3.31-8,7.46-8,7.46l-8.85,4.56-9.92,3.12-7.77,1a4.3,4.3,0,0,1-4.17-1.93s.48-4.33,2.57-6.85l1.85-2.13Z"/><path class="cls-2" d="M230.28,170.12a75.79,75.79,0,0,0,34-7.47s11.63-7.56,15.47-13.82c0,0,4.72-5.09,4.64-11.5,0,0-.15-2.12-3.42-2.92a25.26,25.26,0,0,0-8.09,1l-11.64,3.25L249.05,142l-8.21,2a8.61,8.61,0,0,0-2.43.48,9.37,9.37,0,0,0-1.64.78,21.25,21.25,0,0,1-3.63.88,20.22,20.22,0,0,1-2.63.23l-1.62,0q-1.87,0-3.63-.15c-.15-.12-.25-.11-.27-.1-.17,0-.26.38-.19.83,0,0,4.17,6.69,4.95,7.41l.24.24-.11.29-.4.6s-1.27,3.19-1.11,4.82a13.87,13.87,0,0,0-.14,3.87A14.33,14.33,0,0,0,230.28,170.12Z"/><path class="cls-2" d="M230.28,170.12a91.24,91.24,0,0,1-33.89-11.78s-10.22-8.21-12.74-14.13c0,0-3.69-5.06-2.17-10.52,0,0,.62-1.79,4.15-2a29.81,29.81,0,0,1,8.06,2.09l11.19,4.53,11.79,4.7,8,2.91s4,1.67,7.13,1.28c0,0,3.51.06,5.46-1.72a3.66,3.66,0,0,1,1.19-1,3.74,3.74,0,0,1,1.42-.43,3.57,3.57,0,0,1,1.09,1.07c1,1.51.73,3.75-.53,5.77,0,0-5.77,5.08-6.72,5.57l-.31.18,0,.26.27.57s.6,2.91.06,4.28a16.42,16.42,0,0,1-3.46,8.38Z"/><path class="cls-3" d="M283.71,137.82l-1.81-.38a1.19,1.19,0,0,1-1.19,1,1.36,1.36,0,0,1-.74-1.79c-.42-.06-.87-.12-1.33-.15a17.15,17.15,0,0,0-8.06,1.47l-10.95,4.57-12.11,3.31-8.14,2a11.12,11.12,0,0,0-2.41.51,10.33,10.33,0,0,0-1.6.71,25.23,25.23,0,0,1-3.6.89,26,26,0,0,1-2.61.32l-1.63.07c-1.25.05-2.46.07-3.63.07-.16-.1-.25-.08-.28-.07s-.24.31-.15.67l4.05,3.72a41.19,41.19,0,0,0,14.67-.58c1.2-.27,2.33-.58,3.4-.92,0,0,3.39-1,6.78-2.19C259.58,148.44,263.18,147.15,283.71,137.82Z"/><path class="cls-3" d="M182,132.74s0-.4,0-.85,0-.57,0-.72c1,.29,2.69.75,4.72,1.28,5.47,1.44,6.4,1.54,8.58,2.43s2.05,1.14,5.12,2.51c2.61,1.16,3.26,1.09,6.4,2.42l10.94,4.64,4.81,1.75c1.5.53,3.1,1.05,4.81,1.52,1.22.33,2.39.61,3.53.86,0,0,3.51.2,5.51-1.15l3.71-.16,2.81,4.89a17.7,17.7,0,0,1-6.31,2l-.56.05c-3.55.34-5.87.59-6.24.62-1.65.16-4.41-.06-9.29-1.84-1.45-.63-3.88-1.67-6.92-2.93-6-2.51-8.46-3.38-13.13-5.5-3.92-1.76-5.77-2.75-7.17-3.54-3.61-2-2.48-1.8-5.9-3.74C187.47,137.31,182,134.22,182,132.74Z"/><path class="cls-4" d="M277,147.79c-.41.53-1.9,2.38-6.13,5.25a64.24,64.24,0,0,1-9.62,5.25c-4,1.79-9.67,4.37-15.58,5.16-2.18.29-6.09.56-6.74.61a34.82,34.82,0,0,1-3.76.15,22.29,22.29,0,0,1-6.2-1.1s-.12,1.12-.11,1.17a30.17,30.17,0,0,1,.55,5.56c.33.11.82.27,1.42.41a16.29,16.29,0,0,0,5.36.28c4.94-.39,7.42-.59,7.81-.66a60.4,60.4,0,0,0,10.61-2.76,81.92,81.92,0,0,0,9.36-3.82c7.73-3.72,11.87-9.2,14.89-12.8a22.35,22.35,0,0,0,4.53-7.54c1-2.85,1.4-6.43.72-6.68-.41-.15-1.25,1-1.65,1.71a13.84,13.84,0,0,0-.84,2.79,9.3,9.3,0,0,1-1.67,2.71C278,146.15,277.93,146.53,277,147.79Z"/><path class="cls-4" d="M230.66,163.36c1,.19,1.83.36,2.34.47l2.13.38c-.1.36-.22.74-.36,1.12a15.1,15.1,0,0,1-3.11,5,127.66,127.66,0,0,1-15-3.13,121.91,121.91,0,0,1-21.11-7.91,24.53,24.53,0,0,1-2.95-1.71,23.44,23.44,0,0,1-4.42-4c-5-5.66-6.42-12.67-6.85-14.89-.39-2-.76-4.85-.44-4.92s1.65,3.9,2.68,7.31a24.16,24.16,0,0,0,4.09,5.51,26.26,26.26,0,0,0,4.53,3.57,71,71,0,0,0,14,6.82c2.93,1.11,5,1.78,8,2.66a78.66,78.66,0,0,0,10.93,2.74C225.78,162.51,227.84,162.81,230.66,163.36Z"/><ellipse class="cls-5" cx="254.86" cy="140.01" rx="0.25" ry="0.26" transform="translate(27.68 321.53) rotate(-67.41)"/><ellipse class="cls-5" cx="262.23" cy="138.94" rx="1.18" ry="0.39" transform="translate(-30.12 87.95) rotate(-18.02)"/><ellipse class="cls-5" cx="214.53" cy="140.83" rx="0.45" ry="0.54" transform="translate(17.66 305.44) rotate(-73.18)"/><path class="cls-6" d="M283.82,135.51a1.52,1.52,0,0,0-.3-.61,1.84,1.84,0,0,0-.22-.22h0a5,5,0,0,0-3-1.16,34.06,34.06,0,0,0-8.05,1.13l-6.82,1.74c-2,.56-5.14,1.47-9.06,2.64-5.94,1.77-6.93,2.1-9.34,2.71-2.59.66-4.73,1.1-6.14,1.37-3.71.63-6.56,1.08-8,1.29a24.09,24.09,0,0,1-2.61.28l-1.62.07q-1.87.06-3.63.06a.4.4,0,0,0-.28-.06c-.16,0-.25.29-.16.62l2.47,3.1c1,.14,2.44.31,4.13.44,1.48.12,2.89.23,4.75.22a29.23,29.23,0,0,0,5.13-.35,23.47,23.47,0,0,0,4.36-1.2l6.18-2.25c3.08-1.12,6.38-2.29,10.23-3.65,9.72-3.43,14.62-5.14,16.82-5.21C278.64,136.47,283.81,136.31,283.82,135.51Z"/><path class="cls-6" d="M183.54,131.29,186,131a39.26,39.26,0,0,1,8,1.86l11.05,3.79,11.63,3.93,7.88,2.46a22.18,22.18,0,0,0,7.08,1.23,15.63,15.63,0,0,0,2-.06,13.12,13.12,0,0,0,1.8-.31l5.42-.83q1.4,2.25,2.81,4.48a26.51,26.51,0,0,1-7.78,1.54,26,26,0,0,1-4.75-.22,71.9,71.9,0,0,1-10.75-1.63c-9.07-2.1-16.33-5.68-22.92-8.91-1.09-.53-3.43-1.7-5.65-2.83C188.36,133.78,185.5,132.3,183.54,131.29Z"/><path class="cls-7" d="M281.59,133.69a4.31,4.31,0,0,0-2.37,2.47v.63a4.69,4.69,0,0,0,2.38,1.86s.78.33,1.95-.6l.59-.94.19-1,0-.61S283.23,133.56,281.59,133.69Z"/><path class="cls-8" d="M180.89,135.21c-.27-.87-.55-1.74-.83-2.61l-2-1.6-2.19-1.17-1.58-1.11-1.27-.81-1.09-1.12a4.25,4.25,0,0,1-1.16-4s.08-1.72,3-2.54a3.8,3.8,0,0,1,3.18,2.26l3.55,4.47,3.06,3.33a26,26,0,0,1,2.6.52c.41.11.81.21,1.19.33l-3.37.36-1.15.78a10.52,10.52,0,0,0-1.11,1.39A9.46,9.46,0,0,0,180.89,135.21Z"/><ellipse class="cls-9" cx="172.35" cy="122.64" rx="2.49" ry="1.49" transform="translate(-7.09 234.65) rotate(-67.41)"/><path class="cls-8" d="M181.34,138.35s-.05-.11-.08-.2a3.09,3.09,0,0,1-.12-.74c0-.18,0-.22-.06-.41-.09-.56-.19-1.6-.2-1.84a4.75,4.75,0,0,1,3.15-3.94,6.44,6.44,0,0,1,2.05-.18,7.92,7.92,0,0,1,1.53.23l2.4.48c0,.41-.17.55-.29.59-.29.12-.56-.37-1.1-.36a.9.9,0,0,0-.74.4,1.15,1.15,0,0,0,.52,1.35,2,2,0,0,0-2.69.22,1.87,1.87,0,0,0,0,2.25c-1.81-.62-2.45-.45-2.68-.17s-.09,1-.52,1.22c-.24.14-.42,0-.68.15A1.18,1.18,0,0,0,181.34,138.35Z"/><path class="cls-8" d="M181,135.82a.64.64,0,0,1-.06-.14,2.34,2.34,0,0,1-.09-.51c0-.13,0-.15,0-.29-.07-.39-.14-1.11-.15-1.27a3.33,3.33,0,0,1,2.33-2.74,4.57,4.57,0,0,1,1.52-.12,6.47,6.47,0,0,1,1.13.15l1.78.33c0,.22-.05.28-.09.31s-.2-.08-.44-.14a1.15,1.15,0,0,0-.5,0,.87.87,0,0,0-.55.27c-.15.25,0,.66.38.94a1.52,1.52,0,0,0-2,.15,1.24,1.24,0,0,0,0,1.57c-1.35-.44-1.82-.32-2-.12s-.07.68-.39.85-.31,0-.5.1A.81.81,0,0,0,181,135.82Z"/><path class="cls-10" d="M230.07,151.4c-.66-.32-5.93-2.88-9.15-2.78a3.94,3.94,0,0,0-2.37.7,3.16,3.16,0,0,0-1.06,1.74,9.22,9.22,0,0,0,.67,6.31c2.15,4,7.92,6.67,12.15,5.28,2.48-.81,2-2.22,5.11-3.82,4.19-2.17,6.38-.28,11.08-2.25,3.12-1.3,6.43-3.91,6-5.44s-4.83-1.95-7.74-1.63-3.24,1.26-5.69,1.13c-2.72-.15-3.8-1.39-6-.91A6.32,6.32,0,0,0,230.07,151.4Z"/><path class="cls-10" d="M269.2,143c2.76-1.1,2.77-3,4.82-3.23a4.56,4.56,0,0,1,4.61,2.88,4.69,4.69,0,0,1-.35,2.93c-.49,1.57-1.1,3.49-2.78,4.49s-2.44-.08-6.09.6c-2.61.48-3,1.17-4.57,1-1.37-.17-3.29-1-3.82-2.58-.63-1.93,1-4.16,2.75-5.12C265.72,142.88,266.72,144,269.2,143Z"/><path class="cls-10" d="M237.43,162.33c-1.21.21-3.23.56-3.79,1.89-.34.82-.12,1.92.52,2.19s1-.4,2.62-.83,2.21,0,3-.56,1.35-1.76,1-2.4C240.27,161.83,238.51,162.14,237.43,162.33Z"/><path class="cls-10" d="M247.23,166.76c.56,1,3.22.83,5.05.22.35-.12,3.71-1.25,3.65-2.93,0-1-1.2-1.7-2.05-2-.44-.13-.56,0-2.91.28-1.52.19-1.63.17-1.92.33a3.81,3.81,0,0,0-1.59,2.37C247.17,166,247,166.39,247.23,166.76Z"/><path class="cls-10" d="M264,158.34c-1.07.5-1.62.76-2,1.35s-.57,1.61-.17,1.85.68-.16,2.34-1,2.08-.84,2.24-1.31a1.19,1.19,0,0,0-.68-1.4C265.29,157.71,264.84,157.92,264,158.34Z"/><ellipse class="cls-10" cx="256.66" cy="157.82" rx="1.05" ry="0.95" transform="translate(-32.15 71.97) rotate(-15.03)"/><ellipse class="cls-10" cx="254.19" cy="148.62" rx="1.05" ry="0.95" transform="translate(-29.85 71.02) rotate(-15.03)"/><ellipse class="cls-10" cx="259.14" cy="143.72" rx="1.52" ry="0.74" transform="translate(-28.41 72.13) rotate(-15.03)"/><ellipse class="cls-10" cx="244.42" cy="159.7" rx="0.93" ry="1.07" transform="translate(-33.06 68.86) rotate(-15.03)"/><ellipse class="cls-10" cx="242.88" cy="165.58" rx="1.07" ry="0.97" transform="matrix(0.97, -0.26, 0.26, 0.97, -34.64, 68.66)"/><ellipse class="cls-10" cx="196.74" cy="150.71" rx="1.75" ry="1.59" transform="translate(-32.36 56.19) rotate(-15.03)"/><ellipse class="cls-10" cx="209.01" cy="154.27" rx="1.85" ry="1.08" transform="matrix(0.97, -0.26, 0.26, 0.97, -32.86, 59.49)"/><ellipse class="cls-10" cx="196.44" cy="141.94" rx="0.96" ry="0.87" transform="translate(-30.09 55.81) rotate(-15.03)"/><ellipse class="cls-10" cx="194.38" cy="136.11" rx="0.48" ry="0.44" transform="translate(-28.65 55.07) rotate(-15.03)"/><ellipse class="cls-10" cx="190.97" cy="138.49" rx="0.65" ry="0.59" transform="translate(-29.38 54.27) rotate(-15.03)"/><ellipse class="cls-10" cx="193.02" cy="144.43" rx="0.71" ry="0.65" transform="translate(-30.86 55.01) rotate(-15.03)"/><path class="cls-10" d="M197.41,146.44a1.1,1.1,0,0,1-2.12.57,1.06,1.06,0,0,1,.8-1.25A1,1,0,0,1,197.41,146.44Z"/><path class="cls-10" d="M204,146.25a2.53,2.53,0,0,0-2.4-1,1.64,1.64,0,0,0-1,1.82c.2.68,1.07.94,1.63,1.11,1.09.32,1.49,0,2,.35.68.51.16,1.35.81,1.88a2,2,0,0,0,2.45-.17,1.64,1.64,0,0,0,.14-2,2.19,2.19,0,0,0-1.66-1c-.47,0-.63.1-1,0S204.32,146.68,204,146.25Z"/><path class="cls-10" d="M197.23,154.62c.07-.84,1.36-1.88,2.12-2.25a3.56,3.56,0,0,1,2.51-.14,5.91,5.91,0,0,1,2.91,2.35c.91,1.11.82,1.41,1.43,1.69.76.34,1.17,0,2.86.18a4.25,4.25,0,0,1,2.17.54,2.41,2.41,0,0,1,1,2.64c-.13.33-.65.75-1.67,1.57a7.52,7.52,0,0,1-1.76,1.24c-.62.14-3.85-1.27-6.7-3.11C199.44,157.63,197.16,155.53,197.23,154.62Z"/><ellipse class="cls-10" cx="214.67" cy="156.31" rx="1.07" ry="0.97" transform="translate(-33.2 61.03) rotate(-15.03)"/><ellipse class="cls-10" cx="217.19" cy="162.56" rx="2.41" ry="2.18" transform="translate(-34.73 61.9) rotate(-15.03)"/><path class="cls-10" d="M230.49,165.19a1.34,1.34,0,0,1-1,1.57,1.26,1.26,0,1,1,1-1.57Z"/><path class="cls-10" d="M208.89,140.89c-.64,1.05-1.28,3-.35,4,.66.76,1.41.34,2.14,1.1,1.15,1.17,0,2.83,1,3.57.79.6,2.48.23,3.5-.5,1.32-.94.81-1.94,2.23-3.24s2.52-1.06,2.67-1.8c.22-1.09-2.24-2.25-2.69-2.46-1.58-.76-1.93-.36-3.45-1.13s-1.81-1.55-2.72-1.48C210,139.07,209.2,140.39,208.89,140.89Z"/><path class="cls-10" d="M230.56,153c-.47-.21-4.29-1.82-6.65-1.7a3.23,3.23,0,0,0-1.75.52,2.29,2.29,0,0,0-.81,1.18,5.62,5.62,0,0,0,.38,4.22,8.16,8.16,0,0,0,8.81,3.31c1.83-.59,1.52-1.53,3.81-2.65,3.11-1.53,4.68-.31,8.16-1.71,2.3-.93,4.78-2.74,4.49-3.76s-3.51-1.21-5.64-.95-2.4.91-4.19.86c-2-.05-2.76-.85-4.39-.49A5,5,0,0,0,230.56,153Z"/><path class="cls-10" d="M211.52,141.89c-.43.68-.85,1.92-.24,2.62.43.49.93.22,1.41.71.74.76,0,1.84.62,2.32a2.31,2.31,0,0,0,2.3-.33c.87-.61.54-1.27,1.47-2.12s1.66-.69,1.76-1.17c.14-.71-1.47-1.46-1.76-1.6-1-.48-1.27-.23-2.27-.72s-1.19-1-1.79-1C212.25,140.7,211.72,141.56,211.52,141.89Z"/><path class="cls-10" d="M204.05,146.9a1.69,1.69,0,0,0-1.59-.6,1.06,1.06,0,0,0-.71,1.15c.12.42.7.57,1.07.66.73.19,1,0,1.32.19s.09.84.52,1.16a1.43,1.43,0,0,0,1.64-.13,1,1,0,0,0,.12-1.23,1.41,1.41,0,0,0-1.1-.59c-.31,0-.42.07-.66,0S204.28,147.16,204.05,146.9Z"/><path class="cls-10" d="M269.77,145c2.06-.8,2.09-2.1,3.61-2.3a3.24,3.24,0,0,1,3.37,1.95,3.06,3.06,0,0,1-.3,2,5.25,5.25,0,0,1-2.11,3.15c-1.23.7-1.8,0-4.51.5-1.94.37-2.23.85-3.39.73-1-.1-2.43-.62-2.8-1.75-.43-1.33.79-2.9,2.1-3.59S267.92,145.67,269.77,145Z"/><path class="cls-10" d="M249.73,165.88c.36.64,2.09.5,3.28.1.23-.07,2.41-.8,2.39-1.86,0-.61-.77-1.06-1.32-1.22-.29-.08-.36,0-1.89.19-1,.13-1.06.12-1.26.22a2.46,2.46,0,0,0-1,1.5C249.69,165.37,249.59,165.65,249.73,165.88Z"/><ellipse class="cls-10" cx="256.66" cy="157.82" rx="0.73" ry="0.42" transform="translate(-32.15 71.97) rotate(-15.03)"/><ellipse class="cls-10" cx="244.42" cy="159.96" rx="0.47" ry="0.54" transform="translate(-33.13 68.87) rotate(-15.03)"/><ellipse class="cls-10" cx="243.08" cy="165.53" rx="0.47" ry="0.54" transform="translate(-34.61 68.71) rotate(-15.03)"/><path class="cls-10" d="M237.81,162.67c-.81.15-2.18.39-2.56,1.26-.24.53-.09,1.24.33,1.41s.69-.27,1.77-.55,1.48,0,2-.39.93-1.15.66-1.56S238.54,162.54,237.81,162.67Z"/><path class="cls-10" d="M200.31,155.18c0-.58.73-1.26,1.16-1.49a1.73,1.73,0,0,1,1.45,0,4.21,4.21,0,0,1,1.78,1.73c.56.8.52,1,.89,1.22s.68,0,1.66.22a2.43,2.43,0,0,1,1.28.44,2,2,0,0,1,.65,1.87c-.06.23-.35.5-.92,1s-.81.76-1,.8c-.35.08-2.28-1-4-2.38S200.29,155.81,200.31,155.18Z"/><circle class="cls-10" cx="196.44" cy="150.77" r="1.09"/><path class="cls-10" d="M197,146.58a.55.55,0,1,1-1.05.28.55.55,0,1,1,1.05-.28Z"/><path class="cls-10" d="M197,141.8a.55.55,0,1,1-1.05.28.57.57,0,0,1,.37-.73A.57.57,0,0,1,197,141.8Z"/><path class="cls-10" d="M191.37,138.38a.46.46,0,0,1-.28.58.45.45,0,0,1-.52-.36.45.45,0,0,1,.27-.58A.46.46,0,0,1,191.37,138.38Z"/><path class="cls-10" d="M193.34,144.35a.34.34,0,0,1-.64.17.31.31,0,0,1,.25-.36A.32.32,0,0,1,193.34,144.35Z"/><path class="cls-10" d="M194.8,136a.31.31,0,0,1-.24.36.31.31,0,0,1-.39-.19.3.3,0,0,1,.25-.35A.29.29,0,0,1,194.8,136Z"/><ellipse class="cls-10" cx="209.52" cy="154.27" rx="0.93" ry="0.54" transform="translate(-32.84 59.62) rotate(-15.03)"/><ellipse class="cls-10" cx="217.47" cy="162.45" rx="1.85" ry="1.08" transform="matrix(0.97, -0.26, 0.26, 0.97, -34.69, 61.96)"/><circle class="cls-10" cx="214.75" cy="156.19" r="0.52"/><ellipse class="cls-10" cx="229.15" cy="165.52" rx="1.07" ry="0.97" transform="translate(-35.09 65.1) rotate(-15.03)"/><path class="cls-10" d="M264.36,158.38c-.75.37-1.14.56-1.4,1s-.37,1.24-.09,1.43.49-.11,1.66-.7,1.48-.62,1.58-1a1,1,0,0,0-.51-1.1C265.31,157.92,265,158.07,264.36,158.38Z"/><ellipse class="cls-10" cx="259.31" cy="143.72" rx="0.87" ry="0.4" transform="translate(-28.4 72.18) rotate(-15.03)"/><circle class="cls-10" cx="254.35" cy="148.62" r="0.51"/><g class="cls-11"><path class="cls-12" d="M240.52,145s27.29-8.25,32-8.14a3.93,3.93,0,0,1,2.65.41s1.14.65-1.34,3.31-7.95,7.47-7.95,7.47l-8.85,4.55-9.93,3.12-7.76,1a4.28,4.28,0,0,1-4.17-1.93s.48-4.33,2.57-6.85l1.85-2.13Z"/><path class="cls-12" d="M230.18,170.05a75.93,75.93,0,0,0,34.05-7.46s11.63-7.56,15.46-13.82c0,0,4.73-5.1,4.65-11.51,0,0-.15-2.12-3.42-2.92a25.66,25.66,0,0,0-8.1,1l-11.64,3.25L248.94,142l-8.21,2a8.81,8.81,0,0,0-2.43.49,8.91,8.91,0,0,0-1.63.77,20.2,20.2,0,0,1-3.64.89,21.67,21.67,0,0,1-2.62.22h-1.62c-1.25,0-2.46-.08-3.63-.15-.16-.13-.25-.11-.28-.1s-.26.37-.18.82c0,0,4.17,6.69,4.94,7.41l.25.25-.12.29-.39.59s-1.28,3.19-1.11,4.83a13.84,13.84,0,0,0-.14,3.87A14.19,14.19,0,0,0,230.18,170.05Z"/><path class="cls-12" d="M230.18,170.05a90.86,90.86,0,0,1-33.9-11.78s-10.21-8.2-12.73-14.12c0,0-3.7-5.07-2.18-10.52,0,0,.63-1.79,4.16-2a30.32,30.32,0,0,1,8.06,2.09l11.19,4.53L216.56,143l8,2.91s4,1.66,7.12,1.28c0,0,3.52.06,5.47-1.73a3.49,3.49,0,0,1,1.18-1,3.44,3.44,0,0,1,1.43-.43,3.68,3.68,0,0,1,1.09,1.06c1,1.52.73,3.75-.53,5.77,0,0-5.77,5.08-6.73,5.58l-.3.17.05.27.27.56s.59,2.92.06,4.29a16.43,16.43,0,0,1-3.46,8.37Z"/><path class="cls-12" d="M283.6,137.75l-1.81-.38a1.2,1.2,0,0,1-1.18,1,1.36,1.36,0,0,1-.74-1.79c-.43-.07-.87-.12-1.33-.15a17,17,0,0,0-8.06,1.46l-11,4.57-12.12,3.32-8.13,2a10.53,10.53,0,0,0-2.41.52,10,10,0,0,0-1.6.7,25.19,25.19,0,0,1-6.22,1.21l-1.62.07c-1.25.05-2.46.07-3.63.07a.38.38,0,0,0-.28-.07c-.16.05-.25.32-.16.68l4,3.72a41.71,41.71,0,0,0,14.68-.58c1.2-.27,2.33-.58,3.4-.93,0,0,3.39-1,6.78-2.19C259.48,148.38,263.08,147.09,283.6,137.75Z"/><path class="cls-12" d="M181.93,132.68s0-.4,0-.86c0-.31,0-.56,0-.71,1,.29,2.69.74,4.72,1.28,5.46,1.44,6.4,1.54,8.58,2.43s2,1.13,5.12,2.5c2.61,1.16,3.25,1.1,6.4,2.43l10.93,4.63,4.82,1.75c1.49.54,3.1,1.05,4.81,1.52,1.21.33,2.39.62,3.53.86,0,0,3.51.2,5.5-1.15l3.72-.15,2.8,4.88a17.44,17.44,0,0,1-6.3,2l-.56,0c-3.55.34-5.87.59-6.25.63-1.64.16-4.41-.07-9.28-1.85-1.45-.62-3.89-1.66-6.92-2.92-6-2.52-8.46-3.39-13.14-5.5-3.91-1.77-5.76-2.75-7.16-3.54-3.61-2-2.48-1.81-5.9-3.75C187.37,137.24,181.93,134.16,181.93,132.68Z"/><path class="cls-12" d="M276.86,147.72c-.42.54-1.9,2.39-6.13,5.25a63.6,63.6,0,0,1-9.63,5.25c-4,1.79-9.66,4.37-15.58,5.16-2.18.29-6.08.57-6.74.61a34.82,34.82,0,0,1-3.76.15,21.56,21.56,0,0,1-6.19-1.1s-.12,1.13-.11,1.17a31.22,31.22,0,0,1,.55,5.56,12.85,12.85,0,0,0,1.42.41,16.28,16.28,0,0,0,5.35.29c5-.4,7.43-.6,7.82-.66A60.31,60.31,0,0,0,254.47,167a80.83,80.83,0,0,0,9.36-3.82c7.72-3.72,11.87-9.19,14.89-12.79a22.44,22.44,0,0,0,4.53-7.54c.95-2.86,1.4-6.44.72-6.68-.42-.15-1.25.95-1.66,1.71a14.8,14.8,0,0,0-.84,2.79,9.43,9.43,0,0,1-1.66,2.7C277.85,146.09,277.83,146.47,276.86,147.72Z"/><path class="cls-12" d="M230.56,163.29l2.34.47,2.12.38c-.1.37-.22.74-.36,1.13a14.73,14.73,0,0,1-3.11,5,125.76,125.76,0,0,1-15-3.12,121.55,121.55,0,0,1-21.11-7.92,21.51,21.51,0,0,1-3-1.71,23.44,23.44,0,0,1-4.42-4c-5-5.66-6.42-12.66-6.85-14.89-.4-2-.76-4.84-.45-4.92s1.66,3.9,2.69,7.31a23.86,23.86,0,0,0,4.09,5.51,26.13,26.13,0,0,0,4.52,3.58,71.81,71.81,0,0,0,14,6.82c2.92,1.1,5,1.77,8,2.65A79.84,79.84,0,0,0,225,162.35C225.68,162.45,227.74,162.75,230.56,163.29Z"/><ellipse class="cls-12" cx="254.76" cy="139.95" rx="0.25" ry="0.26" transform="translate(27.68 321.39) rotate(-67.41)"/><ellipse class="cls-12" cx="262.13" cy="138.87" rx="1.18" ry="0.39" transform="translate(-30.11 87.92) rotate(-18.02)"/><ellipse class="cls-12" cx="214.43" cy="140.76" rx="0.45" ry="0.54" transform="translate(17.65 305.3) rotate(-73.18)"/><path class="cls-12" d="M283.71,135.44a1.33,1.33,0,0,0-.3-.6,1.14,1.14,0,0,0-.22-.23h0a5.08,5.08,0,0,0-3-1.15,34.37,34.37,0,0,0-8.05,1.12l-6.82,1.74c-2,.57-5.15,1.47-9.06,2.64-5.94,1.78-6.93,2.11-9.35,2.72-2.58.65-4.73,1.09-6.13,1.37-3.71.62-6.56,1.07-8,1.28a23.55,23.55,0,0,1-2.61.29l-1.62.07c-1.25,0-2.46.06-3.64.06a.32.32,0,0,0-.27-.06c-.16,0-.25.28-.16.61l2.47,3.11c1,.14,2.44.3,4.13.43,1.48.12,2.89.23,4.75.22a27.32,27.32,0,0,0,5.12-.35,23.48,23.48,0,0,0,4.37-1.19l6.18-2.26c3.08-1.11,6.37-2.29,10.23-3.65,9.72-3.42,14.62-5.13,16.82-5.2C278.54,136.41,283.71,136.24,283.71,135.44Z"/><path class="cls-12" d="M183.44,131.22l2.49-.24a39.29,39.29,0,0,1,8,1.86l11,3.78,11.64,3.93,7.87,2.47a22.37,22.37,0,0,0,7.08,1.22,12.76,12.76,0,0,0,2-.06,15.32,15.32,0,0,0,1.8-.3l5.42-.83c.93,1.49,1.87,3,2.8,4.48a26.4,26.4,0,0,1-7.77,1.53,26,26,0,0,1-4.75-.22,70.57,70.57,0,0,1-10.76-1.63c-9.06-2.09-16.33-5.68-22.92-8.91l-5.64-2.82C188.26,133.72,185.39,132.24,183.44,131.22Z"/><path class="cls-12" d="M281.59,133.69a4.31,4.31,0,0,0-2.37,2.47v.63a4.69,4.69,0,0,0,2.38,1.86s.78.33,1.95-.6l.59-.94.19-1,0-.61S283.23,133.56,281.59,133.69Z"/><path class="cls-12" d="M180.89,135.21c-.27-.87-.55-1.74-.83-2.61l-2-1.6-2.19-1.17-1.58-1.11-1.27-.81-1.09-1.12a4.25,4.25,0,0,1-1.16-4s.08-1.72,3-2.54a3.8,3.8,0,0,1,3.18,2.26l3.55,4.47,3.06,3.33a26,26,0,0,1,2.6.52c.41.11.81.21,1.19.33l-3.37.36-1.15.78a10.52,10.52,0,0,0-1.11,1.39A9.46,9.46,0,0,0,180.89,135.21Z"/><ellipse class="cls-12" cx="172.35" cy="122.64" rx="2.49" ry="1.49" transform="translate(-7.09 234.65) rotate(-67.41)"/><path class="cls-12" d="M181.24,138.28a1.37,1.37,0,0,1-.09-.2,3,3,0,0,1-.11-.74c0-.18,0-.21-.07-.41-.08-.55-.18-1.59-.19-1.83a4.74,4.74,0,0,1,3.14-3.95A6.44,6.44,0,0,1,186,131a8.16,8.16,0,0,1,1.53.22l2.4.48c0,.42-.18.56-.29.6-.29.11-.56-.37-1.1-.36a.89.89,0,0,0-.74.39,1.14,1.14,0,0,0,.51,1.35,2,2,0,0,0-2.68.22,1.86,1.86,0,0,0,0,2.25c-1.82-.62-2.45-.45-2.68-.17s-.1,1-.53,1.23c-.23.13-.41,0-.67.14A1.2,1.2,0,0,0,181.24,138.28Z"/><path class="cls-12" d="M180.91,135.75a.64.64,0,0,1-.06-.14,1.86,1.86,0,0,1-.09-.51c0-.12,0-.15,0-.29-.06-.38-.13-1.1-.14-1.27a3.34,3.34,0,0,1,2.32-2.74,5.22,5.22,0,0,1,1.52-.12,5.64,5.64,0,0,1,1.14.16l1.77.33c0,.21,0,.28-.08.3s-.2-.07-.45-.13a1.15,1.15,0,0,0-.49,0c-.16,0-.45.1-.55.28s0,.65.38.93a1.52,1.52,0,0,0-2,.16,1.25,1.25,0,0,0,0,1.56c-1.34-.43-1.81-.31-2-.12s-.07.68-.39.85-.31,0-.5.1A.83.83,0,0,0,180.91,135.75Z"/></g></svg>