<?xml version="1.0" encoding="utf-8"?>
<!-- Generator: Adobe Illustrator 26.0.3, SVG Export Plug-In . SVG Version: 6.00 Build 0)  -->
<svg version="1.1" id="Layer_1" xmlns="http://www.w3.org/2000/svg" xmlns:xlink="http://www.w3.org/1999/xlink" x="0px" y="0px"
	 viewBox="0 0 116.9 54.1" style="enable-background:new 0 0 116.9 54.1;" xml:space="preserve">
<style type="text/css">
	.st0{fill:#FFDA84;}
	.st1{fill:#FFD24D;}
	.st2{fill:#FFDF5E;}
	.st3{fill:#F4C840;}
	.st4{opacity:0.74;}
	.st5{fill:#722620;}
	.st6{opacity:0.74;fill:#722620;enable-background:new    ;}
	.st7{fill:#FCE87C;}
	.st8{fill:#CB6454;}
	.st9{fill:#A6D689;}
	.st10{fill:#376E1B;}
	.st11{opacity:0.56;fill:#A6D689;enable-background:new    ;}
	.st12{opacity:0.72;fill:#A6D689;enable-background:new    ;}
</style>
<path class="st0" d="M71.2,26.1c0,0,27.3-8.2,32-8.1c0.9-0.2,1.8,0,2.6,0.4c0,0,1.1,0.6-1.3,3.3s-8,7.5-8,7.5l-8.9,4.6l-9.9,3.1
	l-7.8,1c-1.6,0.2-3.3-0.5-4.2-1.9c0,0,0.5-4.3,2.6-6.9l1.9-2.1L71.2,26.1z"/>
<path class="st1" d="M60.9,51.2c11.8,0.2,23.4-2.4,34.1-7.5c0,0,11.6-7.6,15.5-13.8c0,0,4.7-5.1,4.6-11.5c0,0-0.1-2.1-3.4-2.9
	c-2.7-0.1-5.5,0.2-8.1,1L92,19.7l-12.2,3.4l-8.2,2c-0.8,0.1-1.6,0.2-2.4,0.5c-0.6,0.2-1.1,0.5-1.6,0.8c-1.2,0.4-2.4,0.7-3.6,0.9
	c-1.1,0.1-2,0.1-2.9,0.1h-1.6c-1.2,0-2.5-0.1-3.6-0.1c-0.1-0.1-0.2-0.1-0.3-0.1s-0.3,0.4-0.2,0.8c0,0,4.2,6.7,4.9,7.4l0.2,0.2
	l-0.1,0.3L60,36.5c0,0-1.3,3.2-1.1,4.8C58.4,44.8,59.1,48.3,60.9,51.2L60.9,51.2z"/>
<path class="st1" d="M60.9,51.2c-12-1.7-23.5-5.7-33.9-11.8c0,0-10.2-8.2-12.7-14.1c0,0-3.7-5.1-2.2-10.5c0,0,0.6-1.8,4.1-2
	c2.8,0.3,5.5,1,8.1,2.1l11.2,4.5l11.8,4.7l8,2.9c0,0,4,1.7,7.1,1.3c0,0,3.5,0.1,5.5-1.7c0.6-0.8,1.6-1.4,2.6-1.5
	c0.4,0.3,0.8,0.6,1.1,1.1c1,1.5,0.7,3.7-0.5,5.8c0,0-5.8,5.1-6.7,5.6L64,37.7l0.1,0.3l0.3,0.6c0,0,0.6,2.9,0.1,4.3
	c-0.1,1.1-0.4,2.2-0.7,3.3C63,48,62.1,49.7,60.9,51.2z"/>
<path class="st2" d="M114.3,18.9l-1.8-0.4c-0.1,0.6-0.6,1-1.2,1c-0.7-0.3-1-1.1-0.8-1.8l0,0c-0.4-0.1-0.9-0.1-1.3-0.1
	c-2.8-0.2-5.5,0.3-8.1,1.5l-11,4.6L78,27l-8.1,2c-0.8,0.1-1.6,0.3-2.4,0.5c-0.6,0.2-1.1,0.4-1.6,0.7c-1.2,0.4-2.4,0.7-3.6,0.9
	c-0.9,0.1-1.7,0.3-2.6,0.3l-1.6,0c-1.2,0-2.5,0.1-3.6,0.1c-0.1-0.1-0.2-0.1-0.3-0.1c-0.2,0-0.2,0.3-0.2,0.7l4.1,3.7
	c4.9,0.7,9.9,0.5,14.7-0.6c1.2-0.3,2.3-0.6,3.4-0.9c0,0,3.4-1,6.8-2.2C90.2,29.5,93.8,28.2,114.3,18.9z"/>
<path class="st2" d="M12.6,13.8c0,0,0-0.4,0-0.9s0-0.6,0-0.7c1,0.3,2.7,0.7,4.7,1.3c5.5,1.4,6.4,1.5,8.6,2.4S28,17,31,18.4
	c2.6,1.2,3.3,1.1,6.4,2.4l10.9,4.6l4.8,1.8c1.5,0.5,3.1,1,4.8,1.5c1.2,0.3,2.4,0.6,3.5,0.9c0,0,3.5,0.2,5.5-1.1l3.7-0.2l2.8,4.9
	c-2,1.1-4.1,1.7-6.3,2l-0.6,0.1c-3.6,0.3-5.9,0.6-6.2,0.6c-1.6,0.2-4.4-0.1-9.3-1.8c-1.5-0.6-3.9-1.7-6.9-2.9
	c-6.1-2.5-8.4-3.4-13.1-5.5c-3.9-1.8-5.8-2.8-7.2-3.5c-3.6-2-2.5-1.8-5.9-3.7C18.1,18.4,12.6,15.3,12.6,13.8z"/>
<path class="st3" d="M107.6,28.8c-0.4,0.5-1.9,2.4-6.1,5.2c-3.1,2-6.3,3.8-9.6,5.2c-4,1.8-9.7,4.4-15.6,5.2
	c-2.2,0.3-6.1,0.6-6.7,0.6c-1.2,0.1-2.5,0.2-3.8,0.1c-2.1-0.1-4.2-0.4-6.2-1.1c0,0-0.1,1.1-0.1,1.2c0.3,1.8,0.5,3.7,0.5,5.6
	c0.5,0.2,0.9,0.3,1.4,0.4c1.8,0.4,3.6,0.5,5.4,0.3c4.9-0.4,7.4-0.6,7.8-0.7c3.6-0.6,7.2-1.5,10.6-2.8c3.2-1.1,6.3-2.4,9.4-3.8
	c7.7-3.7,11.9-9.2,14.9-12.8c2-2.2,3.5-4.8,4.5-7.5c1-2.9,1.4-6.4,0.7-6.7c-0.4-0.1-1.2,1-1.7,1.7c-0.4,0.9-0.7,1.8-0.8,2.8
	c-0.4,1-1,1.9-1.7,2.7C108.6,27.2,108.5,27.6,107.6,28.8z"/>
<path class="st3" d="M61.3,44.4l2.3,0.5l2.1,0.4c-0.1,0.4-0.2,0.7-0.4,1.1c-0.7,1.9-1.8,3.6-3.1,5c-5.1-0.7-10.1-1.8-15-3.1
	c-7.3-2-14.3-4.6-21.1-7.9c-1-0.5-2-1.1-3-1.7c-1.6-1.1-3.1-2.5-4.4-4c-5-5.7-6.4-12.7-6.9-14.9c-0.4-2-0.8-4.9-0.4-4.9
	s1.7,3.9,2.7,7.3c1.1,2,2.5,3.9,4.1,5.5c1.4,1.4,2.9,2.6,4.5,3.6c4.4,2.8,9.1,5.1,14,6.8c2.9,1.1,5,1.8,7.9,2.7
	c3.6,1.2,7.2,2.1,10.9,2.7C56.4,43.6,58.4,43.9,61.3,44.4z"/>
<g class="st4">
	<ellipse class="st5" cx="104.6" cy="17.2" rx="0.5" ry="0.5"/>
	<ellipse class="st5" cx="96.1" cy="28.5" rx="0.6" ry="0.6"/>
	<ellipse class="st5" cx="93.3" cy="34.3" rx="0.6" ry="0.6"/>
	<ellipse class="st5" cx="85.1" cy="33.9" rx="0.4" ry="0.4"/>
	<ellipse class="st5" cx="87.9" cy="39.1" rx="0.5" ry="0.5"/>
	<ellipse class="st5" cx="82.4" cy="39.9" rx="0.6" ry="0.6"/>
	<ellipse transform="matrix(0.3841 -0.9233 0.9233 0.3841 8.4506 100.9551)" class="st5" cx="79.9" cy="44.1" rx="0.5" ry="0.6"/>
	<ellipse class="st5" cx="74.3" cy="39.7" rx="0.6" ry="0.6"/>
	<ellipse class="st5" cx="70.7" cy="45.1" rx="0.3" ry="0.3"/>
	<ellipse class="st5" cx="68" cy="48.5" rx="0.4" ry="0.4"/>
	<ellipse class="st5" cx="67.5" cy="35.3" rx="0.5" ry="0.5"/>
	<ellipse transform="matrix(0.3841 -0.9233 0.9233 0.3841 0.8472 82.2772)" class="st5" cx="62.1" cy="40.5" rx="0.5" ry="0.6"/>
	<ellipse transform="matrix(0.3841 -0.9233 0.9233 0.3841 -9.1714 76.5316)" class="st5" cx="52.8" cy="45.1" rx="0.4" ry="0.5"/>
	<ellipse class="st5" cx="49" cy="47.1" rx="0.6" ry="0.6"/>
	<ellipse transform="matrix(0.3841 -0.9233 0.9233 0.3841 -10.5325 62.7111)" class="st5" cx="41.7" cy="39.3" rx="0.6" ry="0.7"/>
	<ellipse class="st5" cx="37.4" cy="37.8" rx="0.4" ry="0.4"/>
	<ellipse transform="matrix(0.3841 -0.9233 0.9233 0.3841 -3.0737 63.9141)" class="st5" cx="46.4" cy="34.3" rx="0.2" ry="0.3"/>
	<ellipse class="st5" cx="55.6" cy="36.5" rx="0.7" ry="0.7"/>
	<ellipse transform="matrix(0.3841 -0.9233 0.9233 0.3841 -4.8105 80.005)" class="st5" cx="57.6" cy="43.6" rx="0.9" ry="1"/>
	<ellipse class="st5" cx="33.6" cy="38" rx="0.3" ry="0.3"/>
	<ellipse class="st5" cx="34.2" cy="31.3" rx="0.4" ry="0.4"/>
	<ellipse class="st5" cx="31" cy="29.9" rx="0.3" ry="0.3"/>
	<ellipse class="st5" cx="29.7" cy="40.1" rx="0.8" ry="0.8"/>
	<ellipse transform="matrix(0.2894 -0.9572 0.9572 0.2894 -13.8278 74.4854)" class="st5" cx="43.3" cy="46.6" rx="0.5" ry="1"/>
	<ellipse class="st5" cx="20.1" cy="16.7" rx="0.2" ry="0.2"/>
	<ellipse class="st5" cx="23.6" cy="20.8" rx="0.5" ry="0.5"/>
	<ellipse class="st5" cx="20.5" cy="28.3" rx="0.5" ry="0.5"/>
	<ellipse transform="matrix(0.3841 -0.9233 0.9233 0.3841 -13.7553 43.2434)" class="st5" cx="25.5" cy="31.9" rx="0.5" ry="0.7"/>
	<ellipse class="st5" cx="53.6" cy="33.3" rx="0.9" ry="0.9"/>
	<ellipse class="st5" cx="49.4" cy="40.1" rx="0.6" ry="0.6"/>
	<ellipse transform="matrix(0.9899 -0.1416 0.1416 0.9899 -3.826 10.5327)" class="st5" cx="72.1" cy="32.1" rx="0.9" ry="0.5"/>
	
		<ellipse transform="matrix(8.576600e-02 -0.9963 0.9963 8.576600e-02 7.1129 106.1291)" class="st5" cx="61.4" cy="49.2" rx="0.3" ry="1"/>
	<path class="st5" d="M68.7,41.1c-0.2,0.4-0.7,0.5-1.1,0.3s-0.5-0.7-0.3-1.1c0.2-0.4,0.6-0.5,1-0.4C68.8,40.2,68.9,40.7,68.7,41.1
		L68.7,41.1z"/>
	<path class="st5" d="M61.6,42.9c-0.5-0.1-1.1,0-1.2,0.4c0,0.2,0,0.4,0.1,0.6c0.1,0.5,0.5,0.9,1,1.1c0.4,0.1,1.1,0.1,1.3-0.3
		s-0.1-0.8-0.3-1C62.2,43.3,61.9,43,61.6,42.9z"/>
	<path class="st5" d="M74.5,44.5c-0.5,0-0.9,0.2-1.2,0.6c0,0.1,0,0.2,0,0.2c0.1,0.2,0.3,0.2,0.3,0.2c0.1,0.1,0.1,0.1,0.1,0.2
		c0.1,0.1,0.2,0.3,0.3,0.5c0.2,0.4,0.9,0.3,1,0.3c0.3,0,0.6-0.2,0.9-0.4c0.2-0.3,0.3-0.7,0.2-1C75.8,44.4,74.5,44.5,74.5,44.5z"/>
	<path class="st5" d="M89.8,32.4c-0.6,0.1-1.3,0.6-1.3,1.1c0,0.1,0.1,0.2,0.1,0.3c0.4,0.5,1.2,0.7,1.8,0.5c0.1,0,0.8-0.3,0.8-0.9
		c-0.1-0.4-0.4-0.8-0.9-0.9C90.1,32.4,89.9,32.4,89.8,32.4z"/>
	<path class="st5" d="M93.8,30.4c-1-0.2-2.1,0.3-2.2,0.9c0,0.3,0.2,0.5,0.4,0.7c0.5,0.4,1.1,0.7,1.7,0.6c0.5,0,1.1,0,1.4-0.3
		c0.1-0.2,0.2-0.5,0.1-0.8C95,30.9,94.4,30.5,93.8,30.4z"/>
</g>
<ellipse transform="matrix(0.3841 -0.9233 0.9233 0.3841 37.077 110.1506)" class="st5" cx="101.1" cy="27.3" rx="0.5" ry="0.6"/>
<ellipse transform="matrix(0.3841 -0.9233 0.9233 0.3841 33.2865 91.875)" class="st5" cx="85.5" cy="21" rx="0.2" ry="0.3"/>
<ellipse transform="matrix(0.951 -0.3093 0.3093 0.951 -1.6259 29.679)" class="st6" cx="92.8" cy="20" rx="1.2" ry="0.4"/>
<ellipse class="st5" cx="88.4" cy="26.9" rx="0.6" ry="0.6"/>
<ellipse transform="matrix(0.2894 -0.9572 0.9572 0.2894 11.0966 58.7575)" class="st5" cx="45.1" cy="21.9" rx="0.4" ry="0.5"/>
<ellipse class="st5" cx="33.6" cy="22.7" rx="0.6" ry="0.6"/>
<ellipse class="st5" cx="107.8" cy="26.9" rx="0.4" ry="0.4"/>
<ellipse class="st5" cx="106.5" cy="33.4" rx="0.3" ry="0.3"/>
<ellipse class="st5" cx="93.4" cy="40.6" rx="0.4" ry="0.4"/>
<ellipse class="st5" cx="91" cy="40.7" rx="0.3" ry="0.3"/>
<ellipse class="st5" cx="98.1" cy="34.5" rx="0.4" ry="0.4"/>
<ellipse class="st5" cx="102.7" cy="37.3" rx="0.4" ry="0.4"/>
<ellipse class="st5" cx="84.5" cy="47.6" rx="0.4" ry="0.4"/>
<ellipse class="st5" cx="90.9" cy="42.3" rx="0.4" ry="0.4"/>
<path class="st7" d="M114.4,16.6c0-0.2-0.1-0.4-0.3-0.6c-0.1-0.1-0.1-0.2-0.2-0.2l0,0c-0.8-0.7-1.9-1.1-3-1.2
	c-2.7,0.1-5.4,0.4-8,1.1L96,17.4c-2,0.6-5.1,1.5-9.1,2.6c-5.9,1.8-6.9,2.1-9.3,2.7c-2.6,0.6-4.7,1.1-6.1,1.4c-3.7,0.6-6.6,1.1-8,1.3
	c-0.6,0.1-1.4,0.2-2.6,0.3l-1.6,0.1c-1.2,0-2.5,0.1-3.6,0.1c-0.1-0.1-0.2-0.1-0.3-0.1c-0.2,0-0.2,0.3-0.1,0.6l2.5,3.1
	c1,0.1,2.4,0.3,4.1,0.4c1.5,0.1,2.9,0.2,4.8,0.2c1.7,0,3.4-0.1,5.1-0.4c1.5-0.3,2.9-0.7,4.4-1.2c1.5-0.6,3.6-1.3,6.2-2.2
	c3.1-1.1,6.4-2.3,10.2-3.7c9.7-3.4,14.6-5.1,16.8-5.2C109.2,17.5,114.4,17.4,114.4,16.6z"/>
<path class="st7" d="M14.1,12.4l2.5-0.2c2.7,0.3,5.4,1,8,1.9l11.1,3.8l11.6,3.9l7.9,2.5c2.3,0.8,4.7,1.2,7.1,1.2c0.7,0,1.3,0,2-0.1
	c0.6-0.1,1.2-0.2,1.8-0.3l5.4-0.8l2.8,4.5c-2.5,0.9-5.1,1.4-7.8,1.5c-1.6,0.1-3.2,0-4.8-0.2c-3.6-0.3-7.2-0.8-10.8-1.7
	c-9.1-2.1-16.3-5.7-22.9-8.9l-5.6-2.8C19,14.8,16.1,13.4,14.1,12.4z"/>
<path class="st8" d="M112.3,14.8c-1.1,0.5-2,1.4-2.4,2.5v0.6c0.6,0.9,1.4,1.5,2.4,1.9c0,0,0.8,0.3,2-0.6l0.6-0.9l0.2-1v-0.6
	C115.1,16.6,113.9,14.7,112.3,14.8z"/>
<path class="st9" d="M11.6,16.3c-0.3-0.9-0.6-1.7-0.8-2.6l-2-1.6l-2.2-1.2L5,9.8L3.7,9L2.6,7.9c-1.1-1-1.5-2.6-1.1-4
	c0,0,0.1-1.7,3-2.5c1.4,0.1,2.6,1,3.2,2.3l3.6,4.5l3.1,3.3c0.8,0.1,1.7,0.3,2.6,0.5c0.4,0.1,0.8,0.2,1.2,0.3l-3.4,0.4l-1.3,0.7
	c-0.4,0.4-0.8,0.9-1.1,1.4C12.1,15.3,11.8,15.8,11.6,16.3z"/>
<ellipse transform="matrix(0.3841 -0.9233 0.9233 0.3841 -1.4855 5.1358)" class="st10" cx="3.1" cy="3.7" rx="2.5" ry="1.5"/>
<path class="st11" d="M11.9,19.4c0-0.1-0.1-0.1-0.1-0.2c-0.1-0.2-0.1-0.5-0.1-0.7s0-0.2-0.1-0.4c-0.1-0.6-0.2-1.6-0.2-1.8
	c0.2-1.8,1.4-3.3,3.1-3.9c0.7-0.2,1.4-0.2,2.1-0.2c0.5,0,1,0.1,1.5,0.2l2.4,0.5c-0.1,0.4-0.2,0.6-0.3,0.6c-0.3,0.1-0.6-0.4-1.1-0.4
	c-0.3,0-0.6,0.1-0.8,0.4c-0.2,0.5,0,1.1,0.5,1.4c-0.8-0.6-2-0.5-2.7,0.2c-0.5,0.7-0.5,1.6,0,2.2c-1.8-0.6-2.4-0.5-2.7-0.2
	s-0.1,1-0.5,1.2c-0.2,0.1-0.4,0-0.7,0.1C12.1,18.7,12,19,11.9,19.4z"/>
<path class="st12" d="M11.6,16.9c0,0,0-0.1-0.1-0.1c-0.1-0.2-0.1-0.3-0.1-0.5c0-0.1,0-0.1-0.1-0.3c-0.1-0.4-0.1-1.1-0.1-1.3
	c0.2-1.3,1.1-2.4,2.3-2.7c0.5-0.1,1-0.2,1.5-0.1c0.4,0,0.8,0.1,1.1,0.2l1.8,0.3c0,0.2,0,0.3-0.1,0.3s-0.2-0.1-0.4-0.1
	c-0.2,0-0.3,0-0.5,0s-0.4,0.1-0.5,0.3c-0.1,0.2,0,0.6,0.4,0.9c-0.6-0.5-1.5-0.4-2,0.1c-0.4,0.5-0.4,1.1,0,1.6
	c-1.4-0.4-1.8-0.3-2-0.1s-0.1,0.7-0.4,0.8s-0.3,0-0.5,0.1C11.7,16.4,11.6,16.6,11.6,16.9z"/>
</svg>
